/* XPM */
static char * C:\wrk\octocat\octocat_xpm[] = {
"44 18 13 1",
" 	c None",
".	c #00FF00",
"+	c #000000",
"@	c #FFAEC9",
"#	c #FFFFFF",
"$	c #00A2E8",
"%	c #FF5A00",
"&	c #0C17AE",
"*	c #ED1C24",
"=	c #FF0000",
"-	c #FFCC00",
";	c #5964ED",
">	c #005AFF",
"............................................",
"............................................",
"...++.....++................................",
"...+++++++++................................",
"..+++++++++++...............................",
"..+++@@@@@+++...............................",
"..++@#@@@#@++...............................",
"..++@$@@@$@++....%..&.......................",
"...++@@*@@++....%%.&&.====.=..=.............",
"....+++++++....%%%&&&.=..=.=..=.............",
"......+++...+..%%&---.====.=..=.............",
"......+++.+++..%&&--;.=..=.====.............",
".....++++++....&&&-;;.>..>.>>>>.>>>>.>.>>...",
"....++++++.....---;;;.>>>>.>..>.>....>>>....",
"...+++.+.+.....--.;;..>..>.>>>>.>....>.>>...",
"..++.+.+.++....-..;...>..>.>..>.>>>>.>..>...",
"............................................",
"............................................"};
